<?xml version="1.0" standalone="no"?><!DOCTYPE svg PUBLIC "-//W3C//DTD SVG 1.1//EN" "http://www.w3.org/Graphics/SVG/1.1/DTD/svg11.dtd"><svg t="1728479425238" class="icon" viewBox="0 0 1024 1024" version="1.1" xmlns="http://www.w3.org/2000/svg" p-id="4256" xmlns:xlink="http://www.w3.org/1999/xlink" width="256" height="256"><path d="M832 704H160a32 32 0 0 1-32-32v-224h735.936v12.928L864 672a32 32 0 0 1-32 32z m-128-96v-128h-32v128h32z m-128-32v-96h-32v96h32z m256 32v-128h-32v128h32zM192 608v-128H160v128h32z m256 0v-128h-32v128h32z m-160-128v96h32v-96H288z" fill="#ffffff" p-id="4257"></path><path d="M176 368l64-48v96zM128 320h32v96H128zM832 320h32v96h-32zM816 368l-64-48v96z" fill="#ffffff" p-id="4258"></path></svg>